<?xml version="1.0" encoding="UTF-8" standalone="no"?>
<!DOCTYPE svg PUBLIC "-//W3C//DTD SVG 1.1//EN" "http://www.w3.org/Graphics/SVG/1.1/DTD/svg11.dtd">
<svg width="100%" height="100%" viewBox="0 0 6638 2708" version="1.1" xmlns="http://www.w3.org/2000/svg" xmlns:xlink="http://www.w3.org/1999/xlink" xml:space="preserve" xmlns:serif="http://www.serif.com/" style="fill-rule:evenodd;clip-rule:evenodd;stroke-linejoin:round;stroke-miterlimit:10;">
    <g transform="matrix(4.16667,0,0,4.16667,-8491.88,-32670.8)">
        <path d="M3034.3,8351.56L2898.2,8351.56C2891.47,8351.56 2888.58,8349.4 2886.94,8347.79C2884.16,8345 2882.78,8341.82 2882.78,8338.05C2882.78,8334.17 2884.16,8330.99 2886.89,8328.26C2889.43,8325.78 2893.12,8324.59 2898.2,8324.59L3034.3,8324.59C3042.51,8324.59 3049.63,8321.97 3055.48,8316.86C3061.32,8311.77 3064.28,8305.52 3064.28,8298.34C3064.28,8290.79 3061.42,8284.46 3055.73,8279.53C3050.13,8274.58 3042.9,8272.06 3034.3,8272.06L2943.55,8272.06C2935.32,8272.06 2927.48,8270.64 2920.24,8267.88C2912.8,8265.03 2906.43,8261.24 2900.78,8256.27C2895.23,8251.41 2890.76,8245.68 2887.57,8239.25C2884.41,8232.9 2882.78,8226.01 2882.78,8218.79C2882.78,8211.58 2884.41,8204.69 2887.57,8198.36C2890.76,8191.94 2895.23,8186.2 2900.78,8181.3C2906.36,8176.41 2912.92,8172.52 2920.24,8169.72C2927.5,8166.95 2935.36,8165.56 2943.55,8165.56L3070.8,8165.56C3077.52,8165.56 3080.44,8167.71 3082.08,8169.32C3084.86,8172.1 3086.21,8175.28 3086.21,8179.05C3086.21,8183.12 3084.83,8186.3 3081.96,8188.81C3079.07,8191.35 3075.52,8192.53 3070.8,8192.53L2943.55,8192.53C2939.71,8192.53 2935.89,8193.26 2932.22,8194.7C2928.63,8196.11 2925.43,8198.07 2922.67,8200.52C2919.93,8202.92 2917.68,8205.71 2916.08,8208.85C2914.4,8212.07 2913.57,8215.41 2913.57,8218.79C2913.57,8222.19 2914.42,8225.54 2916.08,8228.76C2917.68,8231.87 2919.91,8234.71 2922.71,8237.14C2925.4,8239.54 2928.62,8241.47 2932.21,8242.88C2935.89,8244.34 2939.71,8245.07 2943.55,8245.07L3034.3,8245.07C3042.5,8245.07 3050.39,8246.47 3057.79,8249.27C3065.32,8252.12 3071.68,8255.87 3077.23,8260.71C3082.68,8265.49 3087.09,8271.21 3090.3,8277.65C3093.43,8283.99 3095.07,8290.97 3095.07,8298.34C3095.07,8305.52 3093.43,8312.4 3090.3,8318.76C3087.09,8325.17 3082.63,8330.93 3077.08,8335.8C3071.49,8340.67 3064.94,8344.59 3057.63,8347.38C3050.36,8350.15 3042.51,8351.56 3034.3,8351.56" style="fill:rgb(18,78,119);fill-rule:nonzero;"/>
    </g>
    <g transform="matrix(4.16667,0,0,4.16667,-8491.88,-32670.7)">
        <path d="M3347.69,8272.05L3211.8,8272.05C3207.14,8272.05 3203.49,8270.84 3200.61,8268.32C3197.76,8265.82 3196.39,8262.62 3196.39,8258.56C3196.39,8254.83 3197.72,8251.65 3200.56,8248.84C3202.18,8247.2 3205.1,8245.07 3211.8,8245.07L3347.69,8245.07C3354.37,8245.07 3357.3,8247.24 3358.95,8248.84C3361.74,8251.65 3363.09,8254.83 3363.09,8258.56C3363.09,8262.62 3361.69,8265.82 3358.85,8268.32C3355.97,8270.84 3352.34,8272.05 3347.69,8272.05M3347.69,8351.55L3211.58,8351.55C3203.39,8351.55 3195.55,8350.14 3188.24,8347.37C3180.9,8344.57 3174.37,8340.66 3168.76,8335.77C3163.23,8330.91 3158.79,8325.17 3155.57,8318.75C3152.4,8312.35 3150.82,8305.48 3150.82,8298.31L3150.82,8218.79C3150.82,8211.59 3152.4,8204.74 3155.57,8198.35C3158.79,8191.92 3163.23,8186.18 3168.79,8181.27C3174.37,8176.43 3180.9,8172.52 3188.28,8169.71C3195.55,8166.93 3203.39,8165.54 3211.58,8165.54L3347.69,8165.54C3354.37,8165.54 3357.3,8167.7 3358.95,8169.32C3361.74,8172.1 3363.09,8175.3 3363.09,8179.02C3363.09,8183.1 3361.69,8186.29 3358.83,8188.8C3355.97,8191.32 3352.34,8192.52 3347.69,8192.52L3211.58,8192.52C3207.73,8192.52 3203.94,8193.25 3200.24,8194.69C3196.72,8196.07 3193.53,8198.01 3190.7,8200.45C3187.9,8202.91 3185.67,8205.73 3184.09,8208.84C3182.45,8212.01 3181.6,8215.37 3181.6,8218.79L3181.6,8298.31C3181.6,8301.7 3182.45,8305.07 3184.1,8308.28C3185.67,8311.35 3187.9,8314.16 3190.67,8316.61C3193.46,8319.06 3196.68,8321 3200.24,8322.38C3203.84,8323.83 3207.69,8324.56 3211.58,8324.56L3347.69,8324.56C3352.72,8324.56 3356.44,8325.78 3359,8328.29C3361.76,8330.99 3363.09,8334.18 3363.09,8338.07C3363.09,8341.79 3361.74,8344.97 3358.95,8347.77C3357.3,8349.39 3354.37,8351.55 3347.69,8351.55" style="fill:rgb(18,78,119);fill-rule:nonzero;"/>
    </g>
    <g transform="matrix(4.16667,0,0,4.16667,-8491.88,-32675.2)">
        <path d="M3574.41,8272.58L3475.44,8272.58C3472.04,8272.58 3469.39,8271.36 3467.29,8268.84C3465.21,8266.34 3464.21,8263.14 3464.21,8259.09C3464.21,8255.36 3465.18,8252.18 3467.25,8249.36C3468.43,8247.73 3470.56,8245.6 3475.44,8245.6L3574.41,8245.6C3579.28,8245.6 3581.42,8247.76 3582.61,8249.36C3584.65,8252.18 3585.63,8255.36 3585.63,8259.09C3585.63,8263.14 3584.61,8266.34 3582.55,8268.84C3580.44,8271.36 3577.8,8272.58 3574.41,8272.58Z" style="fill:rgb(18,78,119);"/>
    </g>
    <g transform="matrix(4.16667,0,0,4.16667,-8491.88,-32675.5)">
        <path d="M3418.85,8338.63L3418.85,8219.36C3418.85,8212.18 3420.45,8205.31 3423.62,8198.9C3426.82,8192.47 3431.28,8186.75 3436.85,8181.84C3442.4,8176.99 3448.95,8173.1 3456.27,8170.28C3463.58,8167.5 3471.42,8166.11 3479.61,8166.11L3570.35,8166.11C3578.56,8166.11 3586.39,8167.5 3593.68,8170.28C3601.01,8173.1 3607.56,8176.99 3613.17,8181.87C3618.7,8186.75 3623.15,8192.47 3626.36,8198.94C3629.53,8205.31 3631.12,8212.18 3631.12,8219.36L3631.12,8338.63C3631.12,8344.49 3628.66,8347.05 3626.8,8348.49C3623.63,8350.94 3619.98,8352.12 3615.74,8352.12C3611.08,8352.12 3607.44,8350.9 3604.58,8348.39C3601.7,8345.88 3600.33,8342.71 3600.33,8338.63L3600.33,8219.36C3600.33,8215.99 3599.5,8212.66 3597.85,8209.42C3596.28,8206.34 3594.07,8203.54 3591.28,8201.06C3588.47,8198.61 3585.25,8196.65 3581.7,8195.27C3578.08,8193.83 3574.25,8193.09 3570.35,8193.09L3479.61,8193.09C3475.73,8193.09 3471.89,8193.83 3468.23,8195.28C3464.72,8196.65 3461.52,8198.61 3458.72,8201.04C3455.93,8203.48 3453.7,8206.3 3452.13,8209.42C3450.48,8212.58 3449.65,8215.95 3449.65,8219.36L3449.65,8338.63C3449.65,8343.04 3448.26,8346.3 3445.39,8348.54C3442.31,8350.96 3438.67,8352.12 3434.23,8352.12C3429.99,8352.12 3426.35,8350.94 3423.16,8348.49C3421.32,8347.05 3418.85,8344.49 3418.85,8338.63Z" style="fill:rgb(18,78,119);"/>
    </g>
    <g transform="matrix(4.16667,0,0,4.16667,-8491.88,-32670.9)">
        <path d="M2811.62,8165.56L2675.5,8165.56C2667.33,8165.56 2659.47,8166.96 2652.21,8169.73C2644.83,8172.55 2638.3,8176.45 2632.72,8181.29C2627.17,8186.2 2622.72,8191.94 2619.54,8198.37C2616.33,8204.76 2614.74,8211.62 2614.74,8218.81L2614.74,8298.33C2614.74,8305.51 2616.33,8312.37 2619.54,8318.77C2622.72,8325.19 2627.17,8330.93 2632.7,8335.8C2638.3,8340.68 2644.83,8344.59 2652.2,8347.39C2659.47,8350.16 2667.33,8351.57 2675.5,8351.57L2811.62,8351.57C2818.32,8351.57 2821.25,8349.41 2822.89,8347.8C2825.67,8345 2827.02,8341.81 2827.02,8338.09C2827.02,8334.2 2825.7,8331.01 2822.94,8328.31C2820.39,8325.8 2816.67,8324.58 2811.62,8324.58L2675.5,8324.58C2671.63,8324.58 2667.78,8323.85 2664.17,8322.41C2660.63,8321.02 2657.41,8319.08 2654.62,8316.63C2651.83,8314.18 2649.61,8311.37 2648.06,8308.3C2646.37,8305.09 2645.54,8301.72 2645.54,8298.33L2645.54,8218.81C2645.54,8215.4 2646.37,8212.04 2648.03,8208.86C2649.61,8205.75 2651.83,8202.93 2654.65,8200.47C2657.46,8198.03 2660.67,8196.09 2664.17,8194.71C2667.87,8193.27 2671.69,8192.54 2675.5,8192.54L2811.62,8192.54C2816.29,8192.54 2819.93,8191.34 2822.79,8188.82C2825.65,8186.31 2827.02,8183.12 2827.02,8179.04C2827.02,8175.32 2825.67,8172.13 2822.89,8169.34C2821.25,8167.72 2818.32,8165.56 2811.62,8165.56" style="fill:rgb(18,78,119);fill-rule:nonzero;"/>
    </g>
    <g transform="matrix(4.16667,0,0,4.16667,-8491.88,-32670.7)">
        <path d="M2677.07,8245.06C2670.38,8245.06 2667.48,8247.19 2665.83,8248.83C2663.02,8251.64 2661.67,8254.82 2661.67,8258.55C2661.67,8262.61 2663.05,8265.81 2665.91,8268.31C2668.79,8270.83 2672.44,8272.04 2677.07,8272.04L2811.62,8272.04C2816.26,8272.04 2819.93,8270.83 2822.79,8268.31C2825.65,8265.81 2827.02,8262.61 2827.02,8258.55C2827.02,8254.82 2825.67,8251.64 2822.89,8248.83C2821.25,8247.23 2818.32,8245.06 2811.62,8245.06L2677.07,8245.06Z" style="fill:rgb(18,78,119);fill-rule:nonzero;"/>
    </g>
    <g transform="matrix(4.16667,0,0,4.16667,-8491.88,-32675.4)">
        <path d="M2556.3,8264.43C2554.46,8260.74 2551.93,8257.45 2548.76,8254.67C2545.55,8251.89 2541.81,8249.65 2537.6,8248.04C2533.44,8246.46 2528.93,8245.64 2524.26,8245.64L2494.58,8245.64L2494.58,8245.62L2471.15,8245.62C2464.45,8245.62 2461.54,8247.76 2459.91,8249.43C2457.1,8252.2 2455.75,8255.37 2455.75,8259.12C2455.75,8263.23 2457.1,8266.35 2460,8268.9C2462.91,8271.45 2466.44,8272.61 2471.15,8272.61L2494.58,8272.61L2494.58,8272.57L2518.18,8272.57C2519.77,8272.57 2521.34,8272.87 2522.8,8273.46C2524.26,8274.02 2525.56,8274.82 2526.72,8275.81C2527.85,8276.82 2528.75,8277.97 2529.4,8279.21C2530.08,8280.52 2530.43,8281.9 2530.43,8283.3L2530.43,8314.29C2530.43,8315.67 2530.08,8317.05 2529.4,8318.35C2528.75,8319.61 2527.85,8320.76 2526.7,8321.77C2525.55,8322.75 2524.25,8323.55 2522.8,8324.12C2521.31,8324.71 2519.75,8325.01 2518.18,8325.01L2485.63,8325.01L2485.61,8325.14L2423.02,8325.14C2419.13,8325.14 2415.32,8324.39 2411.71,8322.95C2408.13,8321.56 2404.89,8319.6 2402.15,8317.18C2399.31,8314.72 2397.1,8311.91 2395.53,8308.82C2393.88,8305.6 2393.02,8302.26 2393.02,8298.87L2393.02,8219.34C2393.02,8215.96 2393.88,8212.58 2395.51,8209.43C2397.1,8206.3 2399.33,8203.46 2402.12,8201.04C2404.9,8198.61 2408.1,8196.67 2411.68,8195.25C2415.37,8193.8 2419.19,8193.07 2423.02,8193.07L2542.66,8193.07C2547.41,8193.07 2550.91,8191.92 2553.83,8189.35C2556.74,8186.82 2558.08,8183.71 2558.08,8179.59C2558.08,8175.85 2556.71,8172.68 2553.93,8169.89C2552.3,8168.25 2549.34,8166.11 2542.66,8166.11L2423.02,8166.11C2414.82,8166.11 2406.97,8167.5 2399.7,8170.27C2392.31,8173.1 2385.78,8177.02 2380.23,8181.87C2374.7,8186.72 2370.22,8192.44 2367,8198.9C2363.85,8205.25 2362.26,8212.13 2362.26,8219.34L2362.26,8298.87C2362.26,8306.07 2363.85,8312.97 2367,8319.29C2370.22,8325.76 2374.7,8331.49 2380.24,8336.34C2385.78,8341.21 2392.31,8345.11 2399.68,8347.93C2406.97,8350.7 2414.82,8352.11 2423.02,8352.11L2524.26,8352.11C2528.93,8352.11 2533.44,8351.3 2537.6,8349.72C2541.81,8348.11 2545.55,8345.87 2548.73,8343.1C2551.93,8340.3 2554.46,8337.02 2556.3,8333.32C2558.13,8329.67 2559.04,8325.76 2559.04,8321.63L2559.04,8276.12C2559.04,8272 2558.13,8268.08 2556.3,8264.43" style="fill:rgb(18,78,119);fill-rule:nonzero;"/>
    </g>
    <g transform="matrix(4.16667,0,0,4.16667,-8491.88,-32531.8)">
        <path d="M2177.66,8100.5L2320.91,8100.5L2320.91,8243.76C2320.91,8320.79 2258.47,8383.25 2181.43,8383.25L2038.17,8383.25L2038.17,8239.99C2038.17,8162.95 2100.62,8100.5 2177.66,8100.5" style="fill:rgb(131,188,231);fill-rule:nonzero;stroke:rgb(49,163,220);stroke-width:0.24px;"/>
    </g>
    <g transform="matrix(4.16667,0,0,4.16667,-8491.88,-34972.4)">
        <path d="M2320.91,8532.86L2320.91,8676.12L2177.66,8676.12C2100.62,8676.12 2038.17,8613.67 2038.17,8536.63L2038.17,8393.37L2181.43,8393.37C2258.47,8393.37 2320.91,8455.82 2320.91,8532.86" style="fill:rgb(49,163,220);fill-rule:nonzero;"/>
    </g>
    <g transform="matrix(4.16667,0,0,4.16667,-8491.88,-34972.4)">
        <path d="M2470.52,8393.37L2613.78,8393.37L2613.78,8536.63C2613.78,8613.66 2551.33,8676.12 2474.3,8676.12L2331.04,8676.12L2331.04,8532.86C2331.04,8455.82 2393.49,8393.37 2470.52,8393.37" style="fill:rgb(20,122,177);fill-rule:nonzero;"/>
    </g>
    <g transform="matrix(4.16667,0,0,4.16667,-8491.88,-31197.3)">
        <path d="M2437.9,8117.1L2391.3,8117.1L2391.3,8046.38L2437.9,8046.38L2437.9,8054.74L2400.7,8054.74L2400.7,8074.12L2437.9,8074.12L2437.9,8082.48L2400.7,8082.48L2400.7,8108.74L2437.9,8108.74L2437.9,8117.1Z" style="fill:rgb(46,123,166);fill-rule:nonzero;"/>
    </g>
    <g transform="matrix(4.16667,0,0,4.16667,-8491.88,-31204.5)">
        <path d="M2497.69,8118.81L2488.76,8118.81L2488.76,8113.26C2486.19,8115.47 2483.52,8117.2 2480.73,8118.43C2477.94,8119.67 2474.92,8120.29 2471.66,8120.29C2465.33,8120.29 2460.3,8117.85 2456.58,8112.97C2452.86,8108.09 2451,8101.33 2451,8092.69C2451,8088.19 2451.64,8084.19 2452.92,8080.67C2454.2,8077.16 2455.94,8074.16 2458.12,8071.69C2460.27,8069.29 2462.78,8067.45 2465.65,8066.18C2468.52,8064.92 2471.48,8064.28 2474.56,8064.28C2477.34,8064.28 2479.81,8064.58 2481.97,8065.16C2484.12,8065.75 2486.38,8066.66 2488.76,8067.89L2488.76,8044.9L2497.69,8044.9L2497.69,8118.81ZM2488.76,8105.75L2488.76,8075.3C2486.35,8074.23 2484.2,8073.48 2482.3,8073.07C2480.4,8072.66 2478.32,8072.45 2476.08,8072.45C2471.07,8072.45 2467.18,8074.19 2464.39,8077.68C2461.6,8081.16 2460.21,8086.1 2460.21,8092.5C2460.21,8098.8 2461.29,8103.59 2463.44,8106.87C2465.59,8110.14 2469.05,8111.78 2473.8,8111.78C2476.33,8111.78 2478.89,8111.22 2481.49,8110.1C2484.09,8108.97 2486.51,8107.52 2488.76,8105.75Z" style="fill:rgb(46,123,166);fill-rule:nonzero;"/>
    </g>
    <g transform="matrix(4.16667,0,0,4.16667,-8491.88,-31117.5)">
        <path d="M2562.17,8097.95L2553.24,8097.95L2553.24,8092.06C2550.23,8094.44 2547.35,8096.26 2544.59,8097.53C2541.84,8098.79 2538.8,8099.43 2535.47,8099.43C2529.9,8099.43 2525.56,8097.72 2522.46,8094.32C2519.35,8090.92 2517.8,8085.92 2517.8,8079.33L2517.8,8044.9L2526.73,8044.9L2526.73,8075.11C2526.73,8077.8 2526.86,8080.1 2527.11,8082.02C2527.37,8083.93 2527.9,8085.57 2528.73,8086.93C2529.58,8088.33 2530.69,8089.34 2532.05,8089.97C2533.41,8090.61 2535.39,8090.92 2537.99,8090.92C2540.3,8090.92 2542.83,8090.32 2545.57,8089.12C2548.3,8087.91 2550.86,8086.38 2553.24,8084.51L2553.24,8044.9L2562.17,8044.9L2562.17,8097.95Z" style="fill:rgb(46,123,166);fill-rule:nonzero;"/>
    </g>
    <g transform="matrix(4.16667,0,0,4.16667,-8491.88,-31123.9)">
        <path d="M2621.9,8096.16C2618.92,8097.58 2616.09,8098.69 2613.42,8099.48C2610.74,8100.27 2607.9,8100.67 2604.89,8100.67C2601.06,8100.67 2597.54,8100.11 2594.35,8098.98C2591.15,8097.86 2588.41,8096.16 2586.13,8093.88C2583.82,8091.6 2582.03,8088.72 2580.76,8085.23C2579.49,8081.75 2578.86,8077.68 2578.86,8073.03C2578.86,8064.35 2581.24,8057.54 2586.01,8052.6C2590.77,8047.66 2597.07,8045.19 2604.89,8045.19C2607.93,8045.19 2610.91,8045.62 2613.84,8046.47C2616.77,8047.33 2619.46,8048.37 2621.9,8049.61L2621.9,8059.54L2621.42,8059.54C2618.7,8057.41 2615.89,8055.78 2612.99,8054.64C2610.09,8053.5 2607.27,8052.93 2604.51,8052.93C2599.44,8052.93 2595.45,8054.64 2592.52,8058.04C2589.59,8061.44 2588.12,8066.44 2588.12,8073.03C2588.12,8079.42 2589.56,8084.34 2592.42,8087.77C2595.29,8091.21 2599.32,8092.93 2604.51,8092.93C2606.32,8092.93 2608.15,8092.69 2610.02,8092.22C2611.89,8091.74 2613.57,8091.12 2615.06,8090.36C2616.35,8089.7 2617.57,8088.99 2618.71,8088.25C2619.85,8087.51 2620.76,8086.86 2621.42,8086.33L2621.9,8086.33L2621.9,8096.16Z" style="fill:rgb(46,123,166);fill-rule:nonzero;"/>
    </g>
    <g transform="matrix(4.16667,0,0,4.16667,-8491.88,-31122.9)">
        <path d="M2677.49,8099.24L2668.61,8099.24L2668.61,8093.59C2667.82,8094.13 2666.75,8094.88 2665.4,8095.85C2664.06,8096.81 2662.75,8097.58 2661.48,8098.15C2660,8098.88 2658.29,8099.49 2656.35,8099.98C2654.42,8100.47 2652.16,8100.72 2649.56,8100.72C2644.78,8100.72 2640.73,8099.13 2637.4,8095.97C2634.08,8092.8 2632.41,8088.76 2632.41,8083.85C2632.41,8079.83 2633.28,8076.58 2635,8074.09C2636.73,8071.61 2639.19,8069.65 2642.39,8068.23C2645.62,8066.8 2649.5,8065.83 2654.03,8065.33C2658.55,8064.82 2663.42,8064.44 2668.61,8064.19L2668.61,8062.81C2668.61,8060.78 2668.25,8059.11 2667.54,8057.78C2666.83,8056.45 2665.81,8055.4 2664.48,8054.64C2663.21,8053.91 2661.69,8053.42 2659.92,8053.17C2658.14,8052.91 2656.29,8052.79 2654.36,8052.79C2652.02,8052.79 2649.4,8053.1 2646.52,8053.71C2643.64,8054.33 2640.66,8055.23 2637.59,8056.4L2637.12,8056.4L2637.12,8047.33C2638.86,8046.85 2641.38,8046.33 2644.67,8045.76C2647.96,8045.19 2651.21,8044.9 2654.41,8044.9C2658.14,8044.9 2661.4,8045.21 2664.17,8045.83C2666.94,8046.45 2669.34,8047.5 2671.36,8048.99C2673.36,8050.44 2674.88,8052.33 2675.92,8054.64C2676.97,8056.95 2677.49,8059.82 2677.49,8063.24L2677.49,8099.24ZM2668.61,8086.18L2668.61,8071.41C2665.89,8071.57 2662.68,8071.8 2658.99,8072.12C2655.3,8072.44 2652.38,8072.9 2650.23,8073.5C2647.66,8074.23 2645.59,8075.36 2644,8076.89C2642.42,8078.43 2641.63,8080.54 2641.63,8083.24C2641.63,8086.28 2642.55,8088.56 2644.38,8090.1C2646.22,8091.64 2649.02,8092.4 2652.79,8092.4C2655.93,8092.4 2658.79,8091.79 2661.39,8090.57C2663.99,8089.36 2666.39,8087.89 2668.61,8086.18Z" style="fill:rgb(46,123,166);fill-rule:nonzero;"/>
    </g>
    <g transform="matrix(4.16667,0,0,4.16667,-8491.88,-31182.9)">
        <path d="M2725.15,8113.16C2723.48,8113.6 2721.65,8113.97 2719.67,8114.25C2717.69,8114.54 2715.92,8114.68 2714.37,8114.68C2708.96,8114.68 2704.84,8113.22 2702.02,8110.31C2699.2,8107.39 2697.79,8102.72 2697.79,8096.3L2697.79,8068.08L2691.76,8068.08L2691.76,8060.58L2697.79,8060.58L2697.79,8045.33L2706.72,8045.33L2706.72,8060.58L2725.15,8060.58L2725.15,8068.08L2706.72,8068.08L2706.72,8092.26C2706.72,8095.04 2706.79,8097.22 2706.91,8098.79C2707.04,8100.36 2707.48,8101.82 2708.24,8103.18C2708.94,8104.45 2709.9,8105.38 2711.12,8105.96C2712.34,8106.55 2714.2,8106.84 2716.7,8106.84C2718.16,8106.84 2719.68,8106.63 2721.26,8106.2C2722.84,8105.77 2723.98,8105.42 2724.68,8105.13L2725.15,8105.13L2725.15,8113.16Z" style="fill:rgb(46,123,166);fill-rule:nonzero;"/>
    </g>
    <g transform="matrix(4.16667,0,0,4.16667,-8491.88,-31199.3)">
        <path d="M2748.45,8055.64L2738.38,8055.64L2738.38,8046.38L2748.45,8046.38L2748.45,8055.64ZM2747.88,8117.58L2738.95,8117.58L2738.95,8064.53L2747.88,8064.53L2747.88,8117.58Z" style="fill:rgb(46,123,166);fill-rule:nonzero;"/>
    </g>
    <g transform="matrix(4.16667,0,0,4.16667,-8491.88,-31123.7)">
        <path d="M2813.69,8072.93C2813.69,8081.57 2811.47,8088.4 2807.04,8093.4C2802.61,8098.4 2796.67,8100.91 2789.23,8100.91C2781.72,8100.91 2775.76,8098.4 2771.34,8093.4C2766.93,8088.4 2764.72,8081.57 2764.72,8072.93C2764.72,8064.28 2766.93,8057.45 2771.34,8052.43C2775.76,8047.41 2781.72,8044.9 2789.23,8044.9C2796.67,8044.9 2802.61,8047.41 2807.04,8052.43C2811.47,8057.45 2813.69,8064.28 2813.69,8072.93ZM2804.47,8072.93C2804.47,8066.06 2803.13,8060.95 2800.44,8057.61C2797.74,8054.27 2794.01,8052.6 2789.23,8052.6C2784.38,8052.6 2780.62,8054.27 2777.95,8057.61C2775.27,8060.95 2773.93,8066.06 2773.93,8072.93C2773.93,8079.58 2775.28,8084.62 2777.97,8088.06C2780.66,8091.49 2784.41,8093.21 2789.23,8093.21C2793.98,8093.21 2797.71,8091.51 2800.41,8088.1C2803.12,8084.7 2804.47,8079.64 2804.47,8072.93Z" style="fill:rgb(46,123,166);fill-rule:nonzero;"/>
    </g>
    <g transform="matrix(4.16667,0,0,4.16667,-8491.88,-31129.9)">
        <path d="M2874.79,8100.91L2865.86,8100.91L2865.86,8070.7C2865.86,8068.26 2865.72,8065.98 2865.44,8063.84C2865.15,8061.7 2864.63,8060.03 2863.87,8058.83C2863.08,8057.5 2861.94,8056.51 2860.45,8055.86C2858.96,8055.21 2857.03,8054.89 2854.65,8054.89C2852.22,8054.89 2849.67,8055.49 2847.01,8056.69C2844.35,8057.89 2841.8,8059.43 2839.36,8061.3L2839.36,8100.91L2830.43,8100.91L2830.43,8047.86L2839.36,8047.86L2839.36,8053.75C2842.15,8051.43 2845.03,8049.63 2848,8048.33C2850.98,8047.03 2854.04,8046.38 2857.17,8046.38C2862.9,8046.38 2867.27,8048.11 2870.28,8051.56C2873.29,8055.01 2874.79,8059.98 2874.79,8066.48L2874.79,8100.91Z" style="fill:rgb(46,123,166);fill-rule:nonzero;"/>
    </g>
    <g transform="matrix(4.16667,0,0,4.16667,-8491.88,-31122.9)">
        <path d="M2936.14,8099.24L2927.26,8099.24L2927.26,8093.59C2926.46,8094.13 2925.4,8094.88 2924.05,8095.85C2922.7,8096.81 2921.4,8097.58 2920.13,8098.15C2918.64,8098.88 2916.93,8099.49 2915,8099.98C2913.07,8100.47 2910.8,8100.72 2908.21,8100.72C2903.43,8100.72 2899.37,8099.13 2896.05,8095.97C2892.72,8092.8 2891.06,8088.76 2891.06,8083.85C2891.06,8079.83 2891.92,8076.58 2893.65,8074.09C2895.38,8071.61 2897.84,8069.65 2901.04,8068.23C2904.27,8066.8 2908.14,8065.83 2912.67,8065.33C2917.2,8064.82 2922.06,8064.44 2927.26,8064.19L2927.26,8062.81C2927.26,8060.78 2926.9,8059.11 2926.19,8057.78C2925.47,8056.45 2924.45,8055.4 2923.12,8054.64C2921.86,8053.91 2920.34,8053.42 2918.56,8053.17C2916.79,8052.91 2914.94,8052.79 2913.01,8052.79C2910.66,8052.79 2908.05,8053.1 2905.17,8053.71C2902.29,8054.33 2899.31,8055.23 2896.24,8056.4L2895.76,8056.4L2895.76,8047.33C2897.5,8046.85 2900.02,8046.33 2903.32,8045.76C2906.61,8045.19 2909.85,8044.9 2913.05,8044.9C2916.79,8044.9 2920.04,8045.21 2922.81,8045.83C2925.59,8046.45 2927.98,8047.5 2930.01,8048.99C2932.01,8050.44 2933.53,8052.33 2934.57,8054.64C2935.62,8056.95 2936.14,8059.82 2936.14,8063.24L2936.14,8099.24ZM2927.26,8086.18L2927.26,8071.41C2924.53,8071.57 2921.33,8071.8 2917.64,8072.12C2913.95,8072.44 2911.03,8072.9 2908.87,8073.5C2906.31,8074.23 2904.23,8075.36 2902.65,8076.89C2901.07,8078.43 2900.28,8080.54 2900.28,8083.24C2900.28,8086.28 2901.19,8088.56 2903.03,8090.1C2904.87,8091.64 2907.67,8092.4 2911.44,8092.4C2914.57,8092.4 2917.44,8091.79 2920.04,8090.57C2922.63,8089.36 2925.04,8087.89 2927.26,8086.18Z" style="fill:rgb(46,123,166);fill-rule:nonzero;"/>
    </g>
    <g transform="matrix(4.16667,0,0,4.16667,-8491.88,-31210.6)">
        <rect x="2956.35" y="8046.38" width="8.93" height="73.91" style="fill:rgb(46,123,166);"/>
    </g>
    <g transform="matrix(4.16667,0,0,4.16667,-8491.88,-31197.3)">
        <path d="M3077.36,8067.75C3077.36,8070.89 3076.81,8073.79 3075.72,8076.47C3074.63,8079.14 3073.1,8081.46 3071.14,8083.43C3068.7,8085.86 3065.82,8087.69 3062.49,8088.91C3059.17,8090.13 3054.97,8090.74 3049.9,8090.74L3040.5,8090.74L3040.5,8117.1L3031.09,8117.1L3031.09,8046.38L3050.28,8046.38C3054.53,8046.38 3058.12,8046.73 3061.07,8047.44C3064.01,8048.16 3066.62,8049.27 3068.9,8050.79C3071.6,8052.6 3073.68,8054.85 3075.15,8057.54C3076.62,8060.23 3077.36,8063.63 3077.36,8067.75ZM3067.57,8067.99C3067.57,8065.55 3067.15,8063.43 3066.29,8061.62C3065.44,8059.82 3064.14,8058.35 3062.4,8057.21C3060.88,8056.22 3059.14,8055.52 3057.2,8055.09C3055.25,8054.66 3052.79,8054.45 3049.81,8054.45L3040.5,8054.45L3040.5,8082.71L3048.43,8082.71C3052.23,8082.71 3055.32,8082.37 3057.69,8081.69C3060.07,8081.01 3062,8079.93 3063.49,8078.44C3064.98,8076.92 3066.03,8075.32 3066.65,8073.64C3067.27,8071.96 3067.57,8070.08 3067.57,8067.99Z" style="fill:rgb(46,123,166);fill-rule:nonzero;"/>
    </g>
    <g transform="matrix(4.16667,0,0,4.16667,-8491.88,-31123.7)">
        <path d="M3126.01,8056.11L3125.53,8056.11C3124.2,8055.8 3122.91,8055.57 3121.66,8055.42C3120.41,8055.28 3118.93,8055.21 3117.22,8055.21C3114.46,8055.21 3111.8,8055.82 3109.24,8057.04C3106.67,8058.26 3104.2,8059.83 3101.83,8061.77L3101.83,8099.43L3092.9,8099.43L3092.9,8046.38L3101.83,8046.38L3101.83,8054.21C3105.38,8051.36 3108.5,8049.34 3111.21,8048.16C3113.92,8046.97 3116.68,8046.38 3119.5,8046.38C3121.05,8046.38 3122.17,8046.42 3122.87,8046.49C3123.57,8046.57 3124.61,8046.72 3126.01,8046.95L3126.01,8056.11Z" style="fill:rgb(46,123,166);fill-rule:nonzero;"/>
    </g>
    <g transform="matrix(4.16667,0,0,4.16667,-8491.88,-31123.7)">
        <path d="M3182.94,8072.93C3182.94,8081.57 3180.72,8088.4 3176.29,8093.4C3171.86,8098.4 3165.92,8100.91 3158.48,8100.91C3150.97,8100.91 3145.01,8098.4 3140.6,8093.4C3136.18,8088.4 3133.97,8081.57 3133.97,8072.93C3133.97,8064.28 3136.18,8057.45 3140.6,8052.43C3145.01,8047.41 3150.97,8044.9 3158.48,8044.9C3165.92,8044.9 3171.86,8047.41 3176.29,8052.43C3180.72,8057.45 3182.94,8064.28 3182.94,8072.93ZM3173.73,8072.93C3173.73,8066.06 3172.38,8060.95 3169.69,8057.61C3167,8054.27 3163.26,8052.6 3158.48,8052.6C3153.63,8052.6 3149.87,8054.27 3147.2,8057.61C3144.52,8060.95 3143.18,8066.06 3143.18,8072.93C3143.18,8079.58 3144.53,8084.62 3147.22,8088.06C3149.91,8091.49 3153.67,8093.21 3158.48,8093.21C3163.23,8093.21 3166.96,8091.51 3169.67,8088.1C3172.37,8084.7 3173.73,8079.64 3173.73,8072.93Z" style="fill:rgb(46,123,166);fill-rule:nonzero;"/>
    </g>
    <g transform="matrix(4.16667,0,0,4.16667,-8491.88,-31046.1)">
        <path d="M3243.11,8074.78C3243.11,8083.77 3241.06,8090.38 3236.98,8094.59C3232.89,8098.8 3226.61,8100.91 3218.12,8100.91C3215.3,8100.91 3212.56,8100.71 3209.88,8100.31C3207.2,8099.92 3204.57,8099.35 3201.97,8098.63L3201.97,8089.51L3202.45,8089.51C3203.9,8090.08 3206.21,8090.78 3209.38,8091.62C3212.55,8092.46 3215.71,8092.88 3218.88,8092.88C3221.92,8092.88 3224.44,8092.51 3226.43,8091.79C3228.43,8091.06 3229.98,8090.04 3231.09,8088.75C3232.2,8087.51 3232.99,8086.02 3233.46,8084.28C3233.94,8082.54 3234.18,8080.59 3234.18,8078.44L3234.18,8073.59C3231.48,8075.75 3228.91,8077.35 3226.46,8078.41C3224,8079.48 3220.88,8080.01 3217.08,8080.01C3210.74,8080.01 3205.72,8077.72 3202,8073.14C3198.27,8068.57 3196.41,8062.11 3196.41,8053.79C3196.41,8049.23 3197.06,8045.29 3198.34,8041.98C3199.62,8038.67 3201.37,8035.81 3203.59,8033.41C3205.64,8031.16 3208.15,8029.41 3211.09,8028.16C3214.04,8026.91 3216.97,8026.28 3219.88,8026.28C3222.95,8026.28 3225.52,8026.59 3227.6,8027.21C3229.67,8027.83 3231.86,8028.77 3234.18,8030.04L3234.75,8027.76L3243.11,8027.76L3243.11,8074.78ZM3234.18,8066.23L3234.18,8037.3C3231.8,8036.23 3229.59,8035.46 3227.55,8035C3225.51,8034.54 3223.47,8034.31 3221.45,8034.31C3216.54,8034.31 3212.67,8035.96 3209.86,8039.25C3207.04,8042.54 3205.63,8047.33 3205.63,8053.6C3205.63,8059.55 3206.67,8064.06 3208.76,8067.13C3210.85,8070.2 3214.32,8071.74 3219.17,8071.74C3221.76,8071.74 3224.37,8071.24 3226.98,8070.24C3229.59,8069.25 3231.99,8067.91 3234.18,8066.23Z" style="fill:rgb(46,123,166);fill-rule:nonzero;"/>
    </g>
    <g transform="matrix(4.16667,0,0,4.16667,-8491.88,-31123.7)">
        <path d="M3297.1,8056.11L3296.62,8056.11C3295.29,8055.8 3294,8055.57 3292.75,8055.42C3291.5,8055.28 3290.02,8055.21 3288.31,8055.21C3285.55,8055.21 3282.89,8055.82 3280.33,8057.04C3277.76,8058.26 3275.29,8059.83 3272.92,8061.77L3272.92,8099.43L3263.99,8099.43L3263.99,8046.38L3272.92,8046.38L3272.92,8054.21C3276.47,8051.36 3279.59,8049.34 3282.3,8048.16C3285.01,8046.97 3287.77,8046.38 3290.59,8046.38C3292.14,8046.38 3293.26,8046.42 3293.96,8046.49C3294.66,8046.57 3295.7,8046.72 3297.1,8046.95L3297.1,8056.11Z" style="fill:rgb(46,123,166);fill-rule:nonzero;"/>
    </g>
    <g transform="matrix(4.16667,0,0,4.16667,-8491.88,-31122.9)">
        <path d="M3348.33,8099.24L3339.45,8099.24L3339.45,8093.59C3338.66,8094.13 3337.59,8094.88 3336.24,8095.85C3334.9,8096.81 3333.59,8097.58 3332.32,8098.15C3330.84,8098.88 3329.13,8099.49 3327.19,8099.98C3325.26,8100.47 3323,8100.72 3320.4,8100.72C3315.62,8100.72 3311.57,8099.13 3308.24,8095.97C3304.92,8092.8 3303.25,8088.76 3303.25,8083.85C3303.25,8079.83 3304.12,8076.58 3305.84,8074.09C3307.57,8071.61 3310.03,8069.65 3313.23,8068.23C3316.46,8066.8 3320.34,8065.83 3324.87,8065.33C3329.39,8064.82 3334.26,8064.44 3339.45,8064.19L3339.45,8062.81C3339.45,8060.78 3339.09,8059.11 3338.38,8057.78C3337.67,8056.45 3336.65,8055.4 3335.32,8054.64C3334.05,8053.91 3332.53,8053.42 3330.76,8053.17C3328.98,8052.91 3327.13,8052.79 3325.2,8052.79C3322.86,8052.79 3320.24,8053.1 3317.36,8053.71C3314.48,8054.33 3311.5,8055.23 3308.43,8056.4L3307.96,8056.4L3307.96,8047.33C3309.7,8046.85 3312.22,8046.33 3315.51,8045.76C3318.8,8045.19 3322.05,8044.9 3325.25,8044.9C3328.98,8044.9 3332.24,8045.21 3335.01,8045.83C3337.78,8046.45 3340.18,8047.5 3342.2,8048.99C3344.2,8050.44 3345.72,8052.33 3346.76,8054.64C3347.81,8056.95 3348.33,8059.82 3348.33,8063.24L3348.33,8099.24ZM3339.45,8086.18L3339.45,8071.41C3336.73,8071.57 3333.52,8071.8 3329.83,8072.12C3326.14,8072.44 3323.22,8072.9 3321.07,8073.5C3318.5,8074.23 3316.43,8075.36 3314.84,8076.89C3313.26,8078.43 3312.47,8080.54 3312.47,8083.24C3312.47,8086.28 3313.39,8088.56 3315.22,8090.1C3317.06,8091.64 3319.86,8092.4 3323.63,8092.4C3326.77,8092.4 3329.63,8091.79 3332.23,8090.57C3334.83,8089.36 3337.23,8087.89 3339.45,8086.18Z" style="fill:rgb(46,123,166);fill-rule:nonzero;"/>
    </g>
    <g transform="matrix(4.16667,0,0,4.16667,-8491.88,-31129.9)">
        <path d="M3446.26,8100.91L3437.33,8100.91L3437.33,8070.7C3437.33,8068.42 3437.23,8066.22 3437.02,8064.1C3436.81,8061.98 3436.38,8060.28 3435.71,8059.02C3434.99,8057.66 3433.94,8056.63 3432.58,8055.93C3431.22,8055.23 3429.25,8054.89 3426.69,8054.89C3424.19,8054.89 3421.69,8055.51 3419.18,8056.76C3416.68,8058.01 3414.18,8059.6 3411.68,8061.54C3411.77,8062.26 3411.85,8063.11 3411.92,8064.08C3411.98,8065.04 3412.01,8066 3412.01,8066.95L3412.01,8100.91L3403.08,8100.91L3403.08,8070.7C3403.08,8068.36 3402.98,8066.14 3402.77,8064.03C3402.57,8061.92 3402.13,8060.24 3401.47,8058.97C3400.74,8057.61 3399.69,8056.59 3398.33,8055.91C3396.97,8055.23 3395.01,8054.89 3392.44,8054.89C3390,8054.89 3387.56,8055.49 3385.1,8056.69C3382.65,8057.89 3380.2,8059.43 3377.76,8061.3L3377.76,8100.91L3368.83,8100.91L3368.83,8047.86L3377.76,8047.86L3377.76,8053.75C3380.55,8051.43 3383.33,8049.63 3386.1,8048.33C3388.87,8047.03 3391.82,8046.38 3394.96,8046.38C3398.57,8046.38 3401.63,8047.14 3404.15,8048.66C3406.67,8050.18 3408.54,8052.29 3409.78,8054.98C3413.39,8051.94 3416.68,8049.75 3419.66,8048.4C3422.64,8047.06 3425.82,8046.38 3429.21,8046.38C3435.03,8046.38 3439.33,8048.15 3442.1,8051.68C3444.87,8055.21 3446.26,8060.14 3446.26,8066.48L3446.26,8100.91Z" style="fill:rgb(46,123,166);fill-rule:nonzero;"/>
    </g>
    <g transform="matrix(4.16667,0,0,4.16667,-8491.88,-31129.9)">
        <path d="M3544.19,8100.91L3535.26,8100.91L3535.26,8070.7C3535.26,8068.42 3535.15,8066.22 3534.95,8064.1C3534.74,8061.98 3534.31,8060.28 3533.64,8059.02C3532.91,8057.66 3531.87,8056.63 3530.51,8055.93C3529.14,8055.23 3527.18,8054.89 3524.62,8054.89C3522.11,8054.89 3519.61,8055.51 3517.11,8056.76C3514.61,8058.01 3512.11,8059.6 3509.61,8061.54C3509.7,8062.26 3509.78,8063.11 3509.84,8064.08C3509.91,8065.04 3509.94,8066 3509.94,8066.95L3509.94,8100.91L3501.01,8100.91L3501.01,8070.7C3501.01,8068.36 3500.91,8066.14 3500.7,8064.03C3500.49,8061.92 3500.06,8060.24 3499.39,8058.97C3498.67,8057.61 3497.62,8056.59 3496.26,8055.91C3494.9,8055.23 3492.93,8054.89 3490.37,8054.89C3487.93,8054.89 3485.48,8055.49 3483.03,8056.69C3480.58,8057.89 3478.13,8059.43 3475.69,8061.3L3475.69,8100.91L3466.76,8100.91L3466.76,8047.86L3475.69,8047.86L3475.69,8053.75C3478.48,8051.43 3481.26,8049.63 3484.03,8048.33C3486.8,8047.03 3489.75,8046.38 3492.89,8046.38C3496.5,8046.38 3499.56,8047.14 3502.08,8048.66C3504.6,8050.18 3506.47,8052.29 3507.71,8054.98C3511.32,8051.94 3514.61,8049.75 3517.59,8048.4C3520.56,8047.06 3523.75,8046.38 3527.13,8046.38C3532.96,8046.38 3537.26,8048.15 3540.03,8051.68C3542.8,8055.21 3544.19,8060.14 3544.19,8066.48L3544.19,8100.91Z" style="fill:rgb(46,123,166);fill-rule:nonzero;"/>
    </g>
    <g transform="matrix(4.16667,0,0,4.16667,-8491.88,-31124.7)">
        <path d="M3609.1,8074.07L3570.01,8074.07C3570.01,8077.33 3570.5,8080.17 3571.48,8082.6C3572.46,8085.02 3573.81,8087.01 3575.52,8088.56C3577.17,8090.08 3579.12,8091.22 3581.39,8091.98C3583.65,8092.74 3586.14,8093.12 3588.87,8093.12C3592.48,8093.12 3596.11,8092.4 3599.77,8090.96C3603.43,8089.52 3606.03,8088.1 3607.58,8086.71L3608.06,8086.71L3608.06,8096.44C3605.05,8097.71 3601.98,8098.77 3598.84,8099.63C3595.71,8100.48 3592.41,8100.91 3588.96,8100.91C3580.16,8100.91 3573.29,8098.53 3568.35,8093.76C3563.41,8088.99 3560.94,8082.22 3560.94,8073.45C3560.94,8064.78 3563.3,8057.89 3568.04,8052.79C3572.77,8047.69 3579,8045.14 3586.73,8045.14C3593.89,8045.14 3599.4,8047.23 3603.28,8051.41C3607.16,8055.59 3609.1,8061.53 3609.1,8069.23L3609.1,8074.07ZM3600.41,8067.23C3600.38,8062.54 3599.2,8058.92 3596.87,8056.35C3594.54,8053.79 3591,8052.51 3586.25,8052.51C3581.47,8052.51 3577.66,8053.91 3574.83,8056.73C3572,8059.55 3570.39,8063.05 3570.01,8067.23L3600.41,8067.23Z" style="fill:rgb(46,123,166);fill-rule:nonzero;"/>
    </g>
</svg>